<?xml version="1.0" encoding="UTF-8" standalone="no"?>
<svg
   id="Layer_1"
   data-name="Layer 1"
   viewBox="0 0 782.17389 320.82828"
   version="1.1"
   sodipodi:docname="mlsb.svg"
   width="782.17389"
   height="320.82828"
   inkscape:version="1.4 (86a8ad7, 2024-10-11)"
   xmlns:inkscape="http://www.inkscape.org/namespaces/inkscape"
   xmlns:sodipodi="http://sodipodi.sourceforge.net/DTD/sodipodi-0.dtd"
   xmlns="http://www.w3.org/2000/svg"
   xmlns:svg="http://www.w3.org/2000/svg">
  <defs
     id="defs10" />
  <sodipodi:namedview
     id="namedview10"
     pagecolor="#ffffff"
     bordercolor="#000000"
     borderopacity="0.25"
     inkscape:showpageshadow="2"
     inkscape:pageopacity="0.0"
     inkscape:pagecheckerboard="0"
     inkscape:deskcolor="#d1d1d1"
     inkscape:zoom="0.84082031"
     inkscape:cx="398.42044"
     inkscape:cy="182.55981"
     inkscape:window-width="1920"
     inkscape:window-height="1121"
     inkscape:window-x="-9"
     inkscape:window-y="-9"
     inkscape:window-maximized="1"
     inkscape:current-layer="Layer_1" />
  <path
     d="M 53.49,57.084299 113.98,194.0843 172.49,57.084299 h 52.5 V 281.0843 h -43 v -151 l -55.08,126.42 c -0.5,1.1 -1.3,1.38 -2.41,1.59 -3.63,0.66 -18.07,0.51 -22.06,0.05 -1.74,-0.2 -2.24,-0.08 -3.36,-1.64 -3.12,-4.35 -5.47,-14.89 -9.26,-19.74 L 43,130.0843 v 151 H 0 V 57.084299 h 53.5 z"
     style="fill:#062a41"
     id="path2" />
  <path
     d="m 687.99,281.0843 h -104 V 57.084299 h 108 c -0.42,-3.32 -2.35,-6.11 -3.15,-9.35 -2.5,-10.09 -2.93,-30.71 -1.91,-41.2199996 0.31,-3.14 1.73,-6.84999997 5.51,-6.48999997 1.39,0.13 18.98,14.53999957 22.23,16.86999957 16.89,12.08 49.1,29.86 58.49,47.51 7.45,14.02 8.55,38.670001 1.84,53.180001 -7.85,16.99 -25.35,24.51 -38.99,35.99 14.05,9.56 34.82,21.04 41.71,37.27 3.61,8.5 4.92,22.56 4.31,31.77 -3.28,49.36 -60.48,60.91 -84.69,97.36 -2.78,1.79 -5.19,0.66 -6.36,-2.4 -3.79,-9.91 -2.58,-25.93 -2.99,-36.5 z m 9,-263.000001 v 17.5 c 0,23.08 24.46,32.48 39.47,44.53 1.75,1.4 7.06,7.67 8.17,7.86 3.37,0.58 18.38,-17.33 18.37,-20.41 -0.01,-3.08 -9.51,-10.73 -12.11,-12.88 -12.21,-10.07 -27.91,-19.82 -41.18,-28.82 -1.41,-0.96 -12.11,-8.48 -12.72,-7.78 z M 697,173.0843 c 1.93,0.47 1.92,-0.71 2.81,-1.68 16.99,-18.67 34.15,-27.01 52.66,-42.34 18.03,-14.93 19,-28.33 15.52,-50.970001 l -13.52,15.97 C 736.86,110.1143 703,120.6243 697.27,145.8643 c -2.03,8.95 -1.46,18.18 -0.27,27.22 z m -71.01,-24 c 11.58,-1.42 52.06,3.1 59.98,-3.52 0.75,-0.63 5.79,-14.15 8.21,-17.79 1.94,-2.93 11.66,-12.74 11.74,-14.12 0.18,-3.14 -3.07,-10.24 -5.44,-12.56 -2.65,-2.590001 -13.56,-7.010001 -16.99,-7.010001 h -57.5 z m 122.01,68 c 2.96,2.22 18.03,-16.54 19.24,-20.29 1.86,-5.73 -7.55,-14 -11.79,-17.67 -3.15,-2.73 -26.63,-19.2 -28.79,-18.83 -3.6,2.13 -22.24,17.27 -21.64,20.19 12.69,13.59 36.41,18.36 42.97,36.61 z m -122.01,25 h 47.5 c 4.62,0 15.86,-2.7 20.18,-4.82 17.84,-8.77 18.73,-39.8 1.21,-49.56 -3.25,-1.81 -11.91,-4.61 -15.39,-4.61 h -53.5 v 59 z m 146,-18.5 c 0.49,-4.59 -0.35,-9.83 0,-14.5 -12.89,17.51 -31.42,26.01 -48.31,38.19 -20.14,14.51 -29.61,29.92 -24.19,55.81 21.44,-28.15 68.33,-40.24 72.5,-79.5 z"
     style="fill:#062a41"
     id="path3" />
  <path
     d="m 552.84,115.9443 -41.84,2.14 C 509.43,91.614299 475.87,81.994299 455.06,93.654299 441.91,101.0143 438.51,121.2543 447.97,132.6143 c 12.16,14.6 55.49,18.6 74.7,27.3 60.02,27.18 44.75,108.13 -17.82,122.53 -50.81,11.69 -107.48,-10.92 -110.86,-68.35 l 42.89,-1.89 c 4.56,27.4 31.64,40.04 57.31,33.59 18.96,-4.76 27.64,-26.46 16.23,-42.64 -10.32,-14.63 -57.95,-19.77 -77.11,-28.89 -60.57,-28.84 -38.89,-116.180001 29.1,-120.180001 35.96,-2.11 70.59,4.92 86.04,41.04 1.37,3.2 7.28,19.050001 4.38,20.830001 z"
     style="fill:#062a41"
     id="path4" />
  <polygon
     points="498,570 498,610 371,610 371,386 414,386 414,570 "
     style="fill:#062a41"
     id="polygon4"
     transform="translate(-113.01,-328.9157)" />
  <path
     d="m 697,173.0843 c -1.19,-9.04 -1.76,-18.26 0.27,-27.22 5.73,-25.25 39.59,-35.75 57.2,-51.800001 l 13.52,-15.97 c 3.49,22.640001 2.51,36.030001 -15.52,50.970001 -18.51,15.33 -35.66,23.67 -52.66,42.34 -0.88,0.97 -0.88,2.15 -2.81,1.68 z"
     style="fill:#4c8ebb"
     id="path7" />
  <path
     d="m 771.99,223.5843 c -4.17,39.25 -51.06,51.34 -72.5,79.5 -5.42,-25.89 4.05,-41.3 24.19,-55.81 16.9,-12.17 35.43,-20.68 48.31,-38.19 -0.35,4.67 0.49,9.91 0,14.5 z"
     style="fill:#4c8ebb"
     id="path8" />
  <path
     d="m 696.99,18.084299 c 0.61,-0.7 11.31,6.82 12.72,7.78 13.27,8.99 28.97,18.75 41.18,28.82 2.61,2.15 12.11,9.93 12.11,12.88 0,2.95 -15,20.99 -18.37,20.41 -1.11,-0.19 -6.43,-6.46 -8.17,-7.86 -15.01,-12.05 -39.47,-21.45 -39.47,-44.53 z"
     style="fill:#4c8ebb"
     id="path9" />
  <path
     d="m 748,217.0843 c -6.56,-18.24 -30.29,-23.02 -42.97,-36.61 -0.6,-2.92 18.04,-18.06 21.64,-20.19 2.16,-0.37 25.64,16.09 28.79,18.83 4.24,3.68 13.65,11.94 11.79,17.67 -1.22,3.75 -16.28,22.52 -19.24,20.29 z"
     style="fill:#4c8ebb"
     id="path10" />
</svg>
