<svg width="975" height="247" viewBox="0 0 975 247" fill="none" xmlns="http://www.w3.org/2000/svg">
<path d="M98.7291 41.3239C105.475 39.2673 112.243 39.6077 119.051 42.3387L153.873 57.5435C164.282 61.8523 169.259 70.0155 168.809 82.0382L165.261 163.718L174.862 158.189L199.218 144.164C204.108 140.579 206.944 136.115 207.77 130.452C208.699 124.278 212.675 112.073 206.331 108.683L180.503 95.913C179.712 95.5219 179.211 94.7159 179.211 93.8335L179.211 85.4506C179.211 83.7402 180.999 82.618 182.539 83.3616L214.033 98.5659C221.318 101.851 224.68 108.054 224.105 117.184L220.378 137.681C218.76 144.659 214.97 150.039 209.018 153.812L172.753 175.903C171.528 176.611 170.31 177.239 169.101 177.77C159.983 181.782 151.215 180.752 142.807 174.673L85.4952 127.134C83.6579 125.132 82.2214 122.972 81.2749 120.689L80.1083 121.203C77.1268 122.289 75.7805 124.903 76.0738 129.05C76.1388 129.953 76.2825 130.939 76.5019 131.993L83.2911 168.831C84.6057 174.04 86.2377 177.723 88.1864 179.886L97.0143 188.718C100.565 191.839 104.603 192.243 109.131 189.93L129.63 178.136C130.488 177.642 131.565 177.747 132.311 178.398L138.777 184.039C139.966 185.075 139.796 186.97 138.441 187.779L113.798 202.489C103.447 208.566 95.063 208.011 88.1433 201.064L76.8168 188.777C73.7084 185.328 71.1195 179.463 69.0287 171.164L61.1137 133.757C58.0208 121.793 61.2333 113.714 72.4674 108.821L153.869 76.1733C152.669 74.1324 150.955 72.5232 148.722 71.3573L145.288 69.7059L119.851 57.4778C113.043 54.7437 106.621 54.0313 99.8754 56.0846L93.8564 58.1823C88.9786 60.0443 87.5108 62.4809 88.2838 67.4111L90.772 89.6886C90.8825 90.6779 90.3509 91.6293 89.4389 92.0285C86.5496 93.2932 83.0825 94.625 80.7381 95.4999C79.3547 96.0162 77.864 95.1063 77.6701 93.6425L73.7088 63.7436C72.1166 53.4507 75.7822 48.4292 84.3127 45.6393L98.7291 41.3239ZM92.2005 115.886L92.4248 116.392C93.5875 118.885 95.2926 120.92 97.4674 122.463L149.445 162.595C150.172 163.151 150.921 163.635 151.692 164.04C153.451 162.808 154.361 160.979 154.506 158.576L155.887 87.8827L92.2005 115.886Z" fill="#36B7F6"/>
<path d="M865.293 175.686C863.744 175.686 862.711 174.825 862.023 173.104L828.633 93.761C827.428 91.0072 829.321 88.5977 831.731 88.5977H841.025C842.574 88.5977 843.607 89.2861 844.295 91.1793L869.94 153.484C870.456 154.516 871.833 154.516 872.349 153.484L897.994 91.1793C898.854 89.2861 899.715 88.5977 901.264 88.5977H910.73C913.14 88.5977 914.861 91.0072 913.828 93.761L880.438 173.104C879.75 174.825 878.717 175.686 877.168 175.686H865.293Z" fill="#080A13"/>
<path d="M761.219 206.666C758.638 206.666 757.261 203.912 758.466 201.503L772.407 170.695C773.267 168.974 772.923 167.941 772.407 166.564L739.705 94.1052C738.156 90.8351 740.05 88.5977 742.287 88.5977H752.614C754.163 88.5977 754.851 89.2861 755.884 91.1793L780.84 147.804C781.356 148.837 782.905 148.837 783.422 147.804L808.378 91.1793C809.239 89.2861 810.099 88.5977 811.648 88.5977H821.63C823.868 88.5977 825.761 90.8351 824.384 94.1052L774.472 204.084C773.611 205.978 772.751 206.666 771.202 206.666H761.219Z" fill="#080A13"/>
<path d="M685.832 149.182C685.832 164.844 694.61 175.687 712.165 175.687H727.999C729.892 175.687 731.442 174.138 731.442 172.245V163.639C731.442 161.746 729.892 160.197 727.999 160.197H713.886C706.141 160.197 701.322 156.066 701.322 147.633V105.293C701.322 104.261 702.01 103.572 703.043 103.572H727.999C729.892 103.572 731.442 102.023 731.442 100.13V92.0407C731.442 90.1475 729.892 88.5985 727.999 88.5985H703.043C702.01 88.5985 701.322 87.91 701.322 86.8774V61.577C701.322 59.6838 699.773 58.1348 697.88 58.1348H689.274C687.381 58.1348 685.832 59.6838 685.832 61.577V149.182Z" fill="#080A13"/>
<path d="M589.972 206.666C588.078 206.666 586.529 205.117 586.529 203.224V92.0398C586.529 90.1465 588.078 88.5975 589.972 88.5975H596.168C600.47 88.5975 599.782 94.2772 604.601 94.2772C610.109 94.2772 613.379 85.8438 631.45 85.8438C642.982 85.8438 652.448 89.9744 659.16 97.2031C667.077 105.292 671.38 117.684 671.38 132.142C671.38 146.599 667.077 158.991 659.16 167.252C652.448 174.481 642.982 178.44 631.45 178.44C614.239 178.44 610.281 170.867 605.462 170.867C603.224 170.867 602.019 172.072 602.019 174.653V203.224C602.019 205.117 600.47 206.666 598.577 206.666H589.972ZM601.503 132.142C601.503 141.091 603.74 148.664 608.043 154C612.69 159.68 619.403 163.122 628.352 163.122C637.13 163.122 644.187 159.68 648.661 154C652.964 148.664 655.374 141.091 655.374 132.142C655.374 123.364 652.964 115.619 648.661 110.284C644.187 104.604 637.13 101.334 628.352 101.334C619.403 101.334 612.69 104.604 608.043 110.284C603.74 115.619 601.503 123.364 601.503 132.142Z" fill="#080A13"/>
<path d="M520.054 178.44C498.712 178.44 487.869 165.703 487.869 149.869C487.869 134.379 497.507 122.848 519.193 122.848H546.903C548.108 122.848 548.624 122.331 548.624 121.127V116.824C548.624 106.669 541.568 99.7848 527.971 99.7848C515.407 99.7848 507.318 105.12 506.801 112.005C506.629 114.586 504.908 114.931 503.015 114.931H494.926C492.344 114.931 491.311 113.726 491.483 111.488C491.656 96.1704 507.146 85.8438 527.799 85.8438C549.657 85.8438 563.77 95.8262 563.77 117.34V172.244C563.77 174.137 562.221 175.686 560.328 175.686H554.304C549.485 175.686 550.69 170.178 545.526 170.178C540.707 170.178 536.06 178.44 520.054 178.44ZM503.876 149.353C503.876 159.68 511.448 164.671 523.496 164.671C536.921 164.671 548.624 157.098 548.624 143.501V138.51C548.624 136.789 548.108 136.1 546.903 136.1H520.054C509.211 136.1 503.876 140.919 503.876 149.353Z" fill="#080A13"/>
<path d="M426.118 178.44C414.586 178.44 405.12 174.481 398.236 167.252C390.491 158.991 386.016 146.599 386.016 132.142C386.016 117.684 390.491 105.292 398.236 97.203C405.12 89.9743 414.586 85.8437 426.118 85.8437C443.501 85.8437 447.287 93.4166 452.106 93.4166C454.344 93.4166 455.376 92.3839 455.376 89.6301V55.2078C455.376 53.3146 456.925 51.7656 458.991 51.7656H467.596C469.49 51.7656 471.039 53.3146 471.039 55.2078V172.244C471.039 174.137 469.49 175.686 467.596 175.686H461.4C457.098 175.686 457.786 170.178 452.795 170.178C447.287 170.178 444.189 178.44 426.118 178.44ZM402.194 132.142C402.194 141.091 404.432 148.664 408.906 154C413.381 159.679 420.266 163.122 429.216 163.122C437.993 163.122 444.878 159.679 449.353 154C453.655 148.664 456.065 141.091 456.065 132.142C456.065 123.364 453.655 115.619 449.353 110.283C444.878 104.604 437.993 101.334 429.216 101.334C420.266 101.334 413.381 104.604 408.906 110.283C404.432 115.619 402.194 123.364 402.194 132.142Z" fill="#080A13"/>
<path d="M275.54 175.687C272.786 175.687 271.581 173.277 272.442 171.212L316.502 57.9628C317.191 56.2417 318.568 55.209 320.117 55.209H333.886C335.607 55.209 336.811 56.2417 337.5 57.9628L381.732 171.212C382.593 173.277 381.216 175.687 378.462 175.687H367.103C365.554 175.687 364.349 174.998 363.661 173.105L353.678 147.633C353.162 146.256 352.474 145.395 350.925 145.395H303.078C301.529 145.395 300.84 146.256 300.324 147.633L290.513 173.105C289.825 174.998 288.448 175.687 286.899 175.687H275.54ZM307.208 126.635C306.52 128.701 307.552 129.561 308.585 129.561H345.417C346.45 129.561 347.482 128.701 346.794 126.635L328.378 77.9277C327.862 76.3787 326.14 76.3787 325.624 77.9277L307.208 126.635Z" fill="#080A13"/>
</svg>
