<svg xmlns="http://www.w3.org/2000/svg" width="131" height="41" fill="currentColor" viewBox="0 0 131 41"><path d="M38.669 3.936h-4.211v34.111h4.21V41h-7.12V1.026h7.12zM63.466 41h-7.12v-2.953h4.211V3.937h-4.212V1.025h7.121z"/><path fill-rule="evenodd" d="M47.495 10.388c5.73 0 10.55 4.126 10.55 10.51s-4.82 10.597-10.55 10.597c-5.774 0-10.55-4.213-10.55-10.597s4.776-10.51 10.55-10.51m0 5.212c-2.908 0-5.296 2.084-5.297 5.298 0 3.3 2.389 5.428 5.297 5.428s5.297-2.128 5.297-5.428c0-3.214-2.388-5.298-5.297-5.298M5.297 13.397c1.085-2.04 3.647-3.127 6.339-3.127 5.34 0 9.94 4.127 9.94 10.597 0 6.427-4.644 10.553-9.94 10.554-2.649 0-5.254-1.13-6.34-3.172v2.737H0V1.025h5.297zm5.47 1.911c-2.735 0-5.384 1.998-5.384 5.473 0 3.387 2.519 5.557 5.384 5.557 2.952 0 5.339-2.214 5.34-5.558 0-3.3-2.388-5.472-5.34-5.472" clip-rule="evenodd"/><path d="M93.525 21.735c0 3.3 1.996 4.517 3.863 4.517 2.214 0 4.385-1.217 4.385-4.735V10.704h5.297v20.282h-5.297V28.12c-1.129 2.17-3.56 3.3-5.6 3.3-4.776 0-7.989-2.997-7.989-8.73V10.704h5.341z"/><path fill-rule="evenodd" d="M114.488 13.397c1.085-2.04 3.645-3.127 6.337-3.127 5.341 0 9.942 4.126 9.942 10.597 0 6.427-4.646 10.554-9.942 10.554-2.648 0-5.252-1.13-6.337-3.172v2.737h-5.297V1.025h5.297zm5.47 1.911c-2.736 0-5.385 1.997-5.385 5.471 0 3.388 2.518 5.56 5.385 5.56 2.951 0 5.339-2.216 5.339-5.56 0-3.3-2.388-5.47-5.339-5.47" clip-rule="evenodd"/><path d="M28.542 30.986H23.29V10.704h5.253zM71.793 13.832c.955-2.476 4.297-3.562 6.294-3.562 5.254 0 8.163 3.475 8.163 9.425v11.291h-5.296V19.954c0-2.91-2.128-4.515-4.3-4.515-2.213 0-4.861 1.215-4.861 4.733v10.814h-5.297V1.025h5.297zM25.896.628a3.142 3.142 0 1 1 0 6.284 3.142 3.142 0 0 1 0-6.284"/></svg>