<svg width="1320" height="400" viewBox="0 0 1320 400" fill="none" xmlns="http://www.w3.org/2000/svg">
<path d="M227.84 290.479L234.441 271.148L253.492 278.517L260.092 259.187L279.143 266.555L285.744 247.225" stroke="#2D66F8" style="stroke:#2D66F8;stroke:color(display-p3 0.1765 0.4000 0.9725);stroke-opacity:1;" stroke-width="17.6" stroke-linecap="round" stroke-linejoin="round"/>
<path d="M207.596 108.492L198.369 126.715L180.529 116.767L171.302 134.991L153.462 125.042L144.235 143.266" stroke="#2D66F8" style="stroke:#2D66F8;stroke:color(display-p3 0.1765 0.4000 0.9725);stroke-opacity:1;" stroke-width="17.6" stroke-linecap="round" stroke-linejoin="round"/>
<path d="M144.095 84.3289C148.712 87.5614 154.423 88.8277 159.974 87.849C165.524 86.8704 170.261 83.9995 173.404 79.6533C176.548 75.3071 181.571 71.8933 187.121 70.9146C192.672 69.936 198.383 71.2022 203 74.4348" stroke="#0EA5E9" style="stroke:#0EA5E9;stroke:color(display-p3 0.0549 0.6471 0.9137);stroke-opacity:1;" stroke-width="17.6" stroke-linecap="round" stroke-linejoin="round"/>
<path d="M284.591 153.168C283.037 147.75 279.395 143.172 274.466 140.439C269.537 137.707 264.049 136.957 258.871 138.356C253.693 139.756 247.641 139.248 242.711 136.515C237.782 133.783 234.14 129.205 232.587 123.787" stroke="#0EA5E9" style="stroke:#0EA5E9;stroke:color(display-p3 0.0549 0.6471 0.9137);stroke-opacity:1;" stroke-width="17.6" stroke-linecap="round" stroke-linejoin="round"/>
<path d="M142.055 262.037C146.834 259.051 152.604 258.085 158.096 259.353C163.587 260.621 168.167 263.736 171.079 268.24C173.991 272.745 178.828 276.417 184.32 277.685C189.811 278.953 195.581 277.987 200.361 275.001" stroke="#0EA5E9" style="stroke:#0EA5E9;stroke:color(display-p3 0.0549 0.6471 0.9137);stroke-opacity:1;" stroke-width="17.6" stroke-linecap="round" stroke-linejoin="round"/>
<path d="M114.886 103.505C116.801 106.571 117.652 110.183 117.305 113.781C116.959 117.38 115.435 120.763 112.969 123.407C110.504 126.051 107.235 127.807 103.67 128.404C100.104 129.001 96.4416 128.404 93.2497 126.707" stroke="#2D66F8" style="stroke:#2D66F8;stroke:color(display-p3 0.1765 0.4000 0.9725);stroke-opacity:1;" stroke-width="17.6" stroke-linecap="round" stroke-linejoin="round"/>
<path d="M269.231 321.188C267.478 318.026 264.731 315.531 261.416 314.09C258.101 312.648 254.403 312.341 250.895 313.215C247.388 314.09 244.267 316.097 242.016 318.926C239.766 321.756 238.512 325.248 238.449 328.863" stroke="#3CAB57" style="stroke:#3CAB57;stroke:color(display-p3 0.2353 0.6706 0.3412);stroke-opacity:1;" stroke-width="17.6" stroke-linecap="round" stroke-linejoin="round"/>
<path d="M232.343 89.0185C232.444 86.1377 233.301 83.3341 234.829 80.8895C236.356 78.4449 238.5 76.4454 241.046 75.0921C243.591 73.7388 246.447 73.0793 249.328 73.1799C252.209 73.2805 255.013 74.1377 257.457 75.6652C259.902 77.1928 261.901 79.3369 263.255 81.8821C264.608 84.4273 265.268 87.2839 265.167 90.1648C265.066 93.0456 264.209 95.8492 262.682 98.2938C261.154 100.738 259.01 102.738 256.465 104.091" stroke="#3CAB57" style="stroke:#3CAB57;stroke:color(display-p3 0.2353 0.6706 0.3412);stroke-opacity:1;" stroke-width="17.6" stroke-linecap="round" stroke-linejoin="round"/>
<path d="M170.168 306.358C170.168 309.241 169.409 312.073 167.968 314.569C166.526 317.066 164.453 319.139 161.957 320.58C159.46 322.021 156.629 322.78 153.746 322.78C150.863 322.78 148.032 322.021 145.535 320.58C143.039 319.139 140.966 317.066 139.524 314.569C138.083 312.073 137.324 309.241 137.324 306.358C137.324 303.476 138.083 300.644 139.524 298.148C140.966 295.651 143.039 293.578 145.535 292.137" stroke="#3CAB57" style="stroke:#3CAB57;stroke:color(display-p3 0.2353 0.6706 0.3412);stroke-opacity:1;" stroke-width="17.6" stroke-linecap="round" stroke-linejoin="round"/>
<path d="M103.767 187.584C102.781 190.292 101.1 192.694 98.8913 194.547C96.6831 196.4 94.0261 197.639 91.1872 198.139C88.3484 198.64 85.4279 198.384 82.7191 197.398C80.0103 196.412 77.6088 194.731 75.7559 192.523C73.903 190.314 72.664 187.657 72.1634 184.819C71.6628 181.98 71.9184 179.059 72.9043 176.35C73.8902 173.642 75.5718 171.24 77.78 169.387C79.9882 167.534 82.6452 166.295 85.484 165.795" stroke="#0EA5E9" style="stroke:#0EA5E9;stroke:color(display-p3 0.0549 0.6471 0.9137);stroke-opacity:1;" stroke-width="17.6" stroke-linecap="round" stroke-linejoin="round"/>
<path d="M114.792 155.926L133.566 172.83" stroke="#3CAB57" style="stroke:#3CAB57;stroke:color(display-p3 0.2353 0.6706 0.3412);stroke-opacity:1;" stroke-width="17.6" stroke-linecap="round" stroke-linejoin="round"/>
<path d="M131.763 205.349L137.875 229.861" stroke="#2D66F8" style="stroke:#2D66F8;stroke:color(display-p3 0.1765 0.4000 0.9725);stroke-opacity:1;" stroke-width="17.6" stroke-linecap="round" stroke-linejoin="round"/>
<path d="M210.371 332L198.123 309.905" stroke="#2D66F8" style="stroke:#2D66F8;stroke:color(display-p3 0.1765 0.4000 0.9725);stroke-opacity:1;" stroke-width="17.6" stroke-linecap="round" stroke-linejoin="round"/>
<path d="M294.167 299.48L310.74 280.415" stroke="#0EA5E9" style="stroke:#0EA5E9;stroke:color(display-p3 0.0549 0.6471 0.9137);stroke-opacity:1;" stroke-width="17.6" stroke-linecap="round" stroke-linejoin="round"/>
<path d="M76.7549 237.259L100.493 228.619" stroke="#3CAB57" style="stroke:#3CAB57;stroke:color(display-p3 0.2353 0.6706 0.3412);stroke-opacity:1;" stroke-width="17.6" stroke-linecap="round" stroke-linejoin="round"/>
<path d="M114.821 286.474C111.545 288.002 107.856 288.406 104.326 287.624C100.797 286.841 97.6246 284.916 95.301 282.147C92.9773 279.378 91.6323 275.919 91.4747 272.308C91.317 268.696 92.3554 265.133 94.4289 262.172" stroke="#2D66F8" style="stroke:#2D66F8;stroke:color(display-p3 0.1765 0.4000 0.9725);stroke-opacity:1;" stroke-width="17.6" stroke-linecap="round" stroke-linejoin="round"/>
<path d="M294.518 103.364L310.756 122.716" stroke="#2D66F8" style="stroke:#2D66F8;stroke:color(display-p3 0.1765 0.4000 0.9725);stroke-opacity:1;" stroke-width="17.6" stroke-linecap="round" stroke-linejoin="round"/>
<path d="M1159.84 284C1144.52 284 1130.99 280.558 1119.24 273.675C1107.49 266.793 1098.26 257.198 1091.54 244.893C1085.04 232.587 1081.79 218.509 1081.79 202.657C1081.79 186.18 1085.04 171.893 1091.54 159.796C1098.05 147.699 1107.17 138.313 1118.92 131.639C1130.88 124.756 1144.63 121.315 1160.15 121.315C1175.26 121.315 1188.48 124.652 1199.81 131.326C1211.14 137.792 1219.95 146.656 1226.24 157.919C1232.75 169.182 1236 182.009 1236 196.4C1236 199.32 1235.9 201.823 1235.69 203.909C1235.69 205.994 1235.48 208.497 1235.06 211.417H1115.15C1115.78 220.177 1117.98 227.999 1121.76 234.881C1125.53 241.556 1130.67 246.874 1137.18 250.837C1143.68 254.591 1151.13 256.468 1159.52 256.468C1168.54 256.468 1176.2 254.487 1182.5 250.524C1189 246.353 1193.83 240.513 1196.97 233.004H1231.59C1228.87 242.39 1224.25 250.941 1217.75 258.658C1211.45 266.375 1203.48 272.528 1193.83 277.117C1184.18 281.705 1172.85 284 1159.84 284ZM1115.46 187.953H1202.01C1201.59 175.856 1197.29 166.366 1189.11 159.483C1180.92 152.392 1170.96 148.846 1159.21 148.846C1148.72 148.846 1139.17 152.079 1130.57 158.545C1121.97 165.01 1116.93 174.813 1115.46 187.953Z" fill="#111827" style="fill:#111827;fill:color(display-p3 0.0667 0.0941 0.1529);fill-opacity:1;"/>
<path d="M1031.19 280.246V84H1064.55V280.246H1031.19Z" fill="#111827" style="fill:#111827;fill:color(display-p3 0.0667 0.0941 0.1529);fill-opacity:1;"/>
<path d="M920.007 284C904.48 284 891.052 280.35 879.722 273.05C868.602 265.542 859.999 255.634 853.915 243.329C848.04 231.023 845.102 217.257 845.102 202.032C845.102 187.015 848.04 173.458 853.915 161.361C859.999 149.055 868.602 139.356 879.722 132.265C891.052 124.965 904.48 121.315 920.007 121.315C931.547 121.315 942.037 123.714 951.479 128.511C960.921 133.099 968.579 139.669 974.454 148.221V84H1008.13V280.246H975.713L974.454 256.156C969.418 264.29 962.18 270.964 952.738 276.179C943.296 281.393 932.386 284 920.007 284ZM926.616 254.904C936.477 254.904 944.975 252.61 952.109 248.022C959.242 243.433 964.698 237.176 968.474 229.25C972.251 221.325 974.139 212.46 974.139 202.658C974.139 191.395 971.936 181.905 967.53 174.188C963.334 166.471 957.564 160.526 950.22 156.355C943.086 152.184 935.113 150.098 926.301 150.098C917.279 150.098 909.201 152.288 902.068 156.668C894.934 161.048 889.269 167.096 885.072 174.813C881.086 182.531 879.093 191.708 879.093 202.345C879.093 212.773 881.191 221.95 885.387 229.876C889.583 237.802 895.248 243.954 902.382 248.334C909.516 252.714 917.594 254.904 926.616 254.904Z" fill="#111827" style="fill:#111827;fill:color(display-p3 0.0667 0.0941 0.1529);fill-opacity:1;"/>
<path d="M739.132 284C729.061 284 719.829 282.227 711.436 278.681C703.044 274.927 696.329 269.504 691.294 262.413C686.258 255.321 683.74 246.77 683.74 236.758C683.74 224.87 686.678 215.38 692.553 208.289C698.637 200.989 706.715 195.67 716.786 192.333C727.067 188.787 738.293 187.014 750.462 187.014H790.117C790.117 178.046 788.648 170.85 785.711 165.427C782.774 159.796 778.787 155.729 773.751 153.226C768.716 150.515 762.841 149.159 756.127 149.159C747.315 149.159 739.551 151.245 732.837 155.416C726.333 159.379 722.242 165.74 720.563 174.5H686.888C687.937 163.237 691.713 153.643 698.218 145.718C704.932 137.792 713.429 131.743 723.71 127.572C733.991 123.401 744.902 121.315 756.442 121.315C771.548 121.315 784.032 124.131 793.894 129.762C803.965 135.185 811.413 142.798 816.239 152.6C821.275 162.403 823.793 173.562 823.793 186.076V233.63C824.002 239.678 825.261 244.163 827.569 247.083C830.087 249.794 834.493 251.358 840.788 251.776V280.245C832.395 280.245 825.051 279.307 818.757 277.43C812.672 275.553 807.637 272.737 803.65 268.983C799.664 265.02 796.516 260.014 794.208 253.966C789.173 262.308 781.829 269.4 772.178 275.24C762.526 281.08 751.511 284 739.132 284ZM747 256.781C755.602 256.781 763.156 254.696 769.66 250.524C776.164 246.144 781.2 240.513 784.767 233.63C788.334 226.539 790.117 218.926 790.117 210.792V210.166H752.98C746.895 210.166 741.125 210.896 735.67 212.356C730.424 213.816 726.123 216.319 722.766 219.864C719.619 223.201 718.045 227.894 718.045 233.943C718.045 241.868 720.878 247.708 726.543 251.463C732.208 255.008 739.027 256.781 747 256.781Z" fill="#111827" style="fill:#111827;fill:color(display-p3 0.0667 0.0941 0.1529);fill-opacity:1;"/>
<path d="M592.264 280.245V125.069H624.366L625.31 151.349C630.556 141.963 637.69 134.663 646.712 129.449C655.944 124.026 666.749 121.315 679.128 121.315V156.042H670.001C655.104 156.042 643.984 159.9 636.641 167.617C629.297 175.126 625.625 186.702 625.625 202.344V280.245H592.264Z" fill="#111827" style="fill:#111827;fill:color(display-p3 0.0667 0.0941 0.1529);fill-opacity:1;"/>
<path d="M502.366 284C487.05 284 473.517 280.558 461.767 273.675C450.017 266.793 440.785 257.303 434.071 245.206C427.357 232.9 424 218.717 424 202.657C424 186.806 427.252 172.727 433.756 160.422C440.261 148.116 449.388 138.522 461.137 131.639C472.887 124.756 486.63 121.315 502.366 121.315C521.04 121.315 536.776 126.112 549.575 135.706C562.583 145.092 571.081 158.336 575.067 175.439H539.818C537.93 167.722 533.524 161.465 526.6 156.667C519.886 151.87 511.703 149.472 502.051 149.472C492.19 149.472 484.007 151.975 477.503 156.98C470.999 161.777 466.068 168.243 462.711 176.377C459.564 184.303 457.99 193.063 457.99 202.657C457.99 212.669 459.669 221.741 463.026 229.876C466.593 237.801 471.628 244.163 478.132 248.96C484.847 253.548 492.82 255.843 502.051 255.843C511.493 255.843 519.571 253.653 526.285 249.273C532.999 244.684 537.51 238.114 539.818 229.563H575.067C572.55 240.617 567.934 250.211 561.22 258.346C554.505 266.48 546.113 272.841 536.042 277.43C525.97 281.81 514.745 284 502.366 284Z" fill="#111827" style="fill:#111827;fill:color(display-p3 0.0667 0.0941 0.1529);fill-opacity:1;"/>
</svg>
