<?xml version="1.0" encoding="UTF-8"?>
<svg xmlns="http://www.w3.org/2000/svg" width="247" height="28" viewBox="0 0 247 28" fill="none">
  <path d="M62.43 0.644173H59.0066V27.1931H76.0534V23.9432H62.43V0.644173Z" fill="#5955D7"></path>
  <path d="M85.9395 8.29235C80.629 8.29235 78.3246 11.2947 78.1141 14.5113H81.3639C81.5744 12.8347 82.83 11.1913 85.9764 11.1913C88.7019 11.1913 90.2714 12.4507 90.2714 14.6849V15.9775H89.2226C83.2141 16.0107 77.3792 17.0595 77.3792 22.1965C77.3792 25.7602 80.1748 27.5771 84.0155 27.5771C87.1951 27.5771 89.3592 26.388 90.408 24.8886V27.1931H93.5175V14.8289C93.5175 10.6706 90.7921 8.29604 85.9358 8.29604L85.9395 8.29235ZM90.2714 20.7636C90.2714 23.068 87.7565 24.8849 84.5768 24.8849C82.1653 24.8849 80.8026 23.8361 80.8026 21.949C80.8026 19.5375 83.2141 18.3853 89.0822 18.3853H90.2714V20.7636Z" fill="#5955D7"></path>
  <path d="M102.599 4.13774H99.5592V5.81436C99.5592 8.18895 99.4558 8.85368 95.8921 8.85368V11.7527H99.3487V22.093C99.3487 25.5164 100.955 27.2965 105.357 27.2965C105.985 27.2965 106.894 27.2632 107.699 27.1931V24.2571C107.104 24.2904 106.617 24.2904 105.848 24.2904C103.647 24.2904 102.599 23.6256 102.599 21.251V11.749H107.769V8.84999H102.599V4.13405V4.13774Z" fill="#5955D7"></path>
  <path d="M118.249 8.29235C112.906 8.29235 109.623 12.3103 109.623 17.968C109.623 23.6256 112.732 27.7507 118.46 27.7507C123.593 27.7507 126.389 24.3975 126.74 21.8825H123.457C122.792 23.6293 121.012 24.8517 118.427 24.8517C115.177 24.8517 113.257 22.791 112.906 19.1571H126.74V17.3771C126.74 11.8228 123.246 8.29604 118.253 8.29604L118.249 8.29235ZM112.976 16.5351C113.463 12.6907 115.875 11.1913 118.32 11.1913C121.392 11.1913 123.457 13.5327 123.457 16.5351H112.976Z" fill="#5955D7"></path>
  <path d="M139.24 8.29235C137.143 8.29235 134.875 9.02726 133.405 10.9476V8.85368H130.156V27.1931H133.405V17.1334C133.405 13.3628 135.71 11.1618 138.609 11.1618C141.264 11.1618 142.871 12.8717 142.871 15.8777V27.1968H146.12V15.2869C146.12 11.0252 143.362 8.29974 139.24 8.29974V8.29235Z" fill="#5955D7"></path>
  <path d="M155.168 4.13774H152.129V5.81436C152.129 8.18895 152.026 8.85368 148.462 8.85368V11.7527H151.918V22.093C151.918 25.5164 153.525 27.2965 157.927 27.2965C158.555 27.2965 159.463 27.2632 160.268 27.1931V24.2571C159.674 24.2904 159.186 24.2904 158.418 24.2904C156.217 24.2904 155.168 23.6256 155.168 21.251V11.749H160.338V8.84999H155.168V4.13405V4.13774Z" fill="#5955D7"></path>
  <path d="M176.543 0.644173H173.12V27.1931H190.167V23.9432H176.543V0.644173Z" fill="#5955D7"></path>
  <path d="M200.049 8.29235C194.739 8.29235 192.434 11.2947 192.224 14.5113H195.474C195.684 12.8347 196.94 11.1913 200.086 11.1913C202.811 11.1913 204.381 12.4507 204.381 14.6849V15.9775H203.332C197.324 16.0107 191.489 17.0595 191.489 22.1965C191.489 25.7602 194.284 27.5771 198.125 27.5771C201.305 27.5771 203.469 26.388 204.518 24.8886V27.1931H207.627V14.8289C207.627 10.6706 204.902 8.29604 200.045 8.29604L200.049 8.29235ZM204.381 20.7636C204.381 23.068 201.866 24.8849 198.686 24.8849C196.275 24.8849 194.912 23.8361 194.912 21.949C194.912 19.5375 197.324 18.3853 203.192 18.3853H204.381V20.7636Z" fill="#5955D7"></path>
  <path d="M221.04 8.25911C218.769 8.25911 216.428 9.06419 215.032 10.9845V0.644173H211.782V27.1931H215.032V25.0622C216.254 26.7721 218.665 27.7507 221.11 27.7507C226 27.7507 229.39 23.8731 229.39 18.0049C229.39 12.1368 226.037 8.25911 221.04 8.25911ZM220.482 24.8517C217.303 24.8517 215.032 22.5805 215.032 18.0049C215.032 13.4293 217.233 11.1581 220.446 11.1581C223.902 11.1581 225.967 13.8835 225.967 18.0049C225.967 22.1263 223.939 24.8517 220.482 24.8517Z" fill="#5955D7"></path>
  <path d="M242.489 17.1297L237.81 15.8039C235.993 15.2462 235.258 14.6849 235.258 13.6029C235.258 12.0998 236.691 11.1913 238.892 11.1913C241.337 11.1913 242.803 12.3103 243.187 14.4412H246.47C246.259 10.6706 243.397 8.29235 238.958 8.29235C234.8 8.29235 232.041 10.4232 232.041 13.7432C232.041 16.2249 233.578 17.7612 236.2 18.5293L240.883 19.8551C242.629 20.3795 243.678 21.0775 243.678 22.4402C243.678 23.9765 242.001 24.8517 239.346 24.8517C236.41 24.8517 234.981 23.7697 234.457 21.1846H231.314C231.488 25.0622 234.353 27.7507 239.35 27.7507C243.855 27.7507 246.965 25.5829 246.965 22.093C246.965 19.4378 245.148 17.9015 242.493 17.1334L242.489 17.1297Z" fill="#5955D7"></path>
  <path d="M39.851 6.63051C39.3857 3.03723 36.3095 0.249023 32.5906 0.249023C28.8718 0.249023 25.7955 3.03723 25.3302 6.63051C21.7369 7.09582 18.9487 10.1721 18.9487 13.8909V19.1904H8.34984V4.42579C8.34615 2.12506 6.47381 0.249023 4.17308 0.249023C1.87234 0.249023 0 2.12506 0 4.42579V13.8946C0 17.6135 2.78821 20.6897 6.38148 21.155C6.8468 24.752 9.92306 27.5365 13.6419 27.5365C17.3607 27.5365 20.437 24.7483 20.9023 21.155C24.4956 20.6897 27.2838 17.6135 27.2838 13.8946V8.59518H37.8827V23.3782C37.8827 25.6789 39.755 27.5513 42.0557 27.5513C44.3565 27.5513 46.2288 25.6789 46.2288 23.3782V13.8946C46.2288 10.1758 43.4406 7.09952 39.8473 6.6342L39.851 6.63051ZM2.03114 4.42579C2.03114 3.24404 2.99132 2.28386 4.17308 2.28386C5.35483 2.28386 6.31501 3.24404 6.31501 4.42579V19.098C3.87764 18.6216 2.03114 16.4723 2.03114 13.8983V4.42579ZM13.6456 25.5091C11.0716 25.5091 8.91856 23.6626 8.44586 21.2252H18.849C18.3726 23.6626 16.2233 25.5091 13.6493 25.5091H13.6456ZM25.26 13.8946C25.26 16.4686 23.4135 18.6216 20.9762 19.0943V13.8946C20.9762 11.3206 22.8227 9.16759 25.26 8.69489V13.8946ZM27.3872 6.56403C27.8636 4.12666 30.0129 2.28017 32.5869 2.28017C35.1609 2.28017 37.3139 4.12666 37.7866 6.56403H27.3835H27.3872ZM44.2014 23.3782C44.2014 24.56 43.2412 25.5201 42.0594 25.5201C40.8777 25.5201 39.9175 24.56 39.9175 23.3782V8.69119C42.3549 9.16759 44.2014 11.3169 44.2014 13.8909V23.3782Z" fill="#5955D7"></path>
</svg>
