<svg xmlns="http://www.w3.org/2000/svg" viewBox="0 0 205 26" fill="none" class="css-13udsys"><path fill="#2E2E3B" d="M23.63 1.39v4.33h-9.616v19.297H9.65V5.72H0V1.39h23.63ZM57.732 5.72H40.368v5.317h13.984v4.333H40.368v5.317h17.364v4.33H36.004V1.39h21.728v4.33ZM89.927 12.579a.226.226 0 0 0 .231-.232V5.982a.226.226 0 0 0-.231-.232H75.453a.223.223 0 0 0-.228.232v6.365c0 .133.099.232.228.232h14.474Zm4.595-.232c0 2.495-2.07 4.561-4.595 4.561h-1.28l5.875 6.992v1.117h-4.724l-6.825-8.105h-7.744v8.105h-4.334V1.42h19.036c2.525 0 4.595 2.066 4.595 4.562v6.365h-.004ZM126.854 12.579a.224.224 0 0 0 .227-.232V5.982a.224.224 0 0 0-.227-.232H112.38a.223.223 0 0 0-.228.232v6.365c0 .133.099.232.228.232h14.474Zm4.595-.232c0 2.495-2.066 4.561-4.595 4.561h-1.28l5.875 6.992v1.117h-4.725l-6.824-8.105h-7.744v8.105h-4.334V1.42h19.035c2.526 0 4.596 2.066 4.596 4.562v6.365h-.004ZM205 1.39l-10.931 14.8v8.827h-4.333V16.19c-3.445-4.694-7.516-10.11-10.93-14.8h5.153l7.942 10.042 7.911-10.042H205Z"></path><path fill="#8BFFB3" d="M160.781 1.147a3.876 3.876 0 0 1-.008 5.496 3.909 3.909 0 0 1-5.514-.016 3.875 3.875 0 0 1 .007-5.495 3.907 3.907 0 0 1 5.515.015Z"></path><path fill="#2E2E3B" d="M154.602 9.86a3.876 3.876 0 0 1-.008 5.495 3.91 3.91 0 0 1-5.515-.015 3.876 3.876 0 0 1 .008-5.496 3.907 3.907 0 0 1 5.515.015ZM166.801 9.753a3.876 3.876 0 0 1-.008 5.495 3.909 3.909 0 0 1-5.514-.015 3.875 3.875 0 0 1 .007-5.495 3.907 3.907 0 0 1 5.515.015ZM149.276 18.735a3.877 3.877 0 0 1-.007 5.496 3.91 3.91 0 0 1-5.515-.016 3.876 3.876 0 0 1 .008-5.495 3.905 3.905 0 0 1 5.514.015ZM172.126 18.625a3.876 3.876 0 0 1-.008 5.496 3.909 3.909 0 0 1-5.514-.016 3.877 3.877 0 0 1 .007-5.495 3.907 3.907 0 0 1 5.515.015Z"></path><path fill="#2E2E3B" d="M164.305 11.683h-12.628v1.363h12.628v-1.363Z"></path></svg>
