<svg width="211" height="40" viewBox="0 0 211 40" fill="none" xmlns="http://www.w3.org/2000/svg">
<g clip-path="url(#clip0_368_11667)">
<path d="M0.315974 12.4892C1.25006 10.0699 5.8527 9.97227 7.54008 8.19916C9.28773 6.35844 9.17473 1.78294 11.4497 0.768661C13.7322 -0.245614 17.0467 2.90239 19.5777 2.82726C22.1088 2.75213 25.1747 -0.613758 27.6003 0.310359C30.026 1.23448 30.1013 5.83252 31.864 7.50795C33.6945 9.24349 38.2821 9.10826 39.2915 11.3847C40.3009 13.6612 37.1371 16.982 37.1973 19.514C37.2576 22.0459 40.6173 25.0887 39.6832 27.508C38.7491 29.9272 34.1465 30.0249 32.4591 31.798C30.7115 33.6387 30.8245 38.2142 28.5495 39.2285C26.2745 40.2427 22.9525 37.0947 20.4214 37.1699C17.8904 37.245 14.8244 40.6109 12.4064 39.6868C9.98829 38.7626 9.90543 34.1646 8.14272 32.4892C6.38 30.8137 1.72464 30.8889 0.71522 28.6124C-0.294196 26.3359 2.86965 23.0151 2.80938 20.4832C2.74912 17.9512 -0.618113 14.9159 0.315974 12.4892Z" stroke="black" stroke-width="0.420321"/>
<path d="M3.11151 29.6621C1.90624 27.596 4.52771 24.2677 4.22639 22.0438C3.92507 19.8199 0.550307 17.1828 1.14541 14.9739C1.74051 12.7651 5.9439 12.2241 7.36763 10.3834C8.79136 8.54268 8.14353 4.41796 10.2226 3.23088C12.3017 2.0438 15.6614 4.64335 17.9062 4.35034C20.1511 4.05733 22.8027 0.713976 25.0324 1.30751C27.2622 1.90105 27.8121 6.07085 29.6727 7.49084C31.5334 8.91082 35.684 8.27972 36.8893 10.3383C38.0946 12.3969 35.4731 15.7328 35.7744 17.9567C36.0757 20.1805 39.4505 22.8177 38.8554 25.0265C38.2603 27.2354 34.0569 27.7763 32.6332 29.6171C31.2622 31.3977 31.8573 35.5825 29.7782 36.7696C27.6991 37.9567 24.3394 35.3571 22.0946 35.6501C19.8497 35.9431 17.1981 39.2865 14.9684 38.6929C12.7386 38.0994 12.1887 33.9296 10.3281 32.5096C8.46744 31.0896 4.31679 31.7207 3.11151 29.6621Z" stroke="black" stroke-width="0.420321"/>
<path d="M17.1302 37.5845C14.9381 37.2464 14.0643 33.4673 12.2865 32.3929C10.5087 31.3185 6.63676 32.1975 5.38629 30.4996C4.13582 28.8016 6.19985 25.5033 5.69514 23.4222C5.21303 21.4162 1.8458 19.4252 2.19985 17.2614C2.5539 15.0976 6.38818 14.2111 7.48799 12.4455C8.5878 10.6799 7.71398 6.86319 9.44656 5.62352C11.1716 4.38385 14.5012 6.39738 16.6104 5.88648C18.7196 5.37559 20.6782 2.06229 22.8703 2.40038C25.0624 2.73847 25.9362 6.51759 27.714 7.59197C29.4918 8.66635 33.3637 7.78731 34.6142 9.48528C35.8646 11.1833 33.8006 14.4815 34.3053 16.5627C34.81 18.6438 38.1547 20.5597 37.8006 22.7234C37.4466 24.8872 33.6123 25.7738 32.5125 27.5394C31.375 29.3651 32.2865 33.1216 30.5539 34.3613C28.8213 35.601 25.4993 33.5875 23.3901 34.0984C21.2808 34.6092 19.3223 37.9225 17.1302 37.5845Z" stroke="black" stroke-width="0.420321"/>
<path d="M31.0134 32.1987C29.4917 33.5586 26.2525 32.0034 24.4446 32.6495C22.5689 33.3182 21.0096 36.5564 19.0586 36.4662C17.1075 36.376 15.9249 33.0026 14.132 32.1612C12.3392 31.3197 9.0096 32.5894 7.65366 31.0868C6.29773 29.5842 7.89472 26.346 7.26195 24.5503C6.62918 22.7547 3.36741 21.1619 3.48041 19.216C3.5934 17.2701 6.98323 16.068 7.84952 14.2724C8.71581 12.4767 7.46534 9.17093 8.97946 7.81105C10.4936 6.45117 13.7403 8.00639 15.5482 7.36026C17.3561 6.71413 18.9832 3.45342 20.9343 3.54358C22.8853 3.63374 24.068 7.00714 25.8608 7.84862C27.5859 8.66004 30.9832 7.42037 32.3392 8.923C33.6951 10.4256 32.0981 13.6638 32.7309 15.4594C33.3636 17.2551 36.6254 18.8479 36.5124 20.7938C36.3994 22.7397 33.0096 23.9418 32.1433 25.7374C31.277 27.5331 32.5275 30.8388 31.0134 32.1987Z" stroke="black" stroke-width="0.420321"/>
<path d="M35.2161 19.2001C35.3141 21.0709 32.3009 22.4683 31.7133 24.1287C31.1031 25.8493 32.5344 28.8245 31.3291 30.1618C30.1238 31.4991 27.0052 30.3872 25.3555 31.1761C23.7058 31.965 22.6813 35.0679 20.8056 35.1656C18.9299 35.2632 17.5212 32.258 15.8564 31.6719C14.1916 31.0859 11.1483 32.4834 9.80745 31.2813C8.46659 30.0792 9.57393 26.9687 8.7905 25.3233C8.00708 23.678 4.88843 22.6487 4.78297 20.7854C4.67751 18.9221 7.69822 17.5172 8.28579 15.8568C8.87337 14.1964 7.4647 11.1611 8.66998 9.82371C9.87525 8.48637 12.9939 9.59832 14.6436 8.80944C16.2933 8.02056 17.3178 4.91763 19.1935 4.81995C21.0692 4.72228 22.4779 7.72754 24.1427 8.31357C25.8677 8.92213 28.8508 7.50215 30.1916 8.70425C31.5325 9.90636 30.4252 13.0168 31.2086 14.6622C31.9694 16.2475 35.1107 17.3369 35.2161 19.2001Z" stroke="black" stroke-width="0.420321"/>
<path d="M28.2942 8.72312C29.6954 9.72989 28.9571 12.6826 29.8084 14.0575C30.6596 15.4324 33.6728 16.1837 33.9364 17.814C34.2001 19.4444 31.5786 21.0221 31.1869 22.6525C30.7952 24.2829 32.4374 26.8073 31.4129 28.1897C30.3884 29.5721 27.4054 28.8433 26.0118 29.6923C24.6182 30.5413 23.8573 33.509 22.2076 33.772C20.5579 34.0274 18.9609 31.4504 17.3112 31.0597C15.7217 30.6841 13.1078 32.2919 11.7067 31.2851C10.3055 30.2783 11.0438 27.3257 10.1925 25.9508C9.34132 24.5759 6.32814 23.8246 6.06449 22.1942C5.80084 20.5638 8.4223 18.9861 8.81402 17.3557C9.20573 15.7254 7.56355 13.201 8.58803 11.8185C9.61251 10.4361 12.5956 11.1649 13.9892 10.3159C15.3828 9.46692 16.1436 6.49923 17.7933 6.23627C19.443 5.97331 21.04 8.55783 22.6897 8.94852C24.2792 9.32418 26.8931 7.71636 28.2942 8.72312Z" stroke="black" stroke-width="0.420321"/>
<path d="M16.6928 7.58999C18.237 7.17677 19.9319 9.40818 21.4235 9.596C22.9677 9.79135 25.2125 8.07835 26.5383 8.82966C27.8641 9.58098 27.48 12.3533 28.4216 13.578C29.3632 14.8026 32.1429 15.0881 32.5496 16.6133C32.9564 18.1385 30.689 19.8439 30.4856 21.324C30.2822 22.8041 31.9847 25.0656 31.2088 26.3879C30.4329 27.7102 27.6382 27.3571 26.4027 28.3037C25.1673 29.2504 24.8434 32.0077 23.2992 32.421C21.7549 32.8342 20.06 30.6028 18.5685 30.4149C17.0242 30.2196 14.7794 31.9326 13.4536 31.1813C12.1278 30.43 12.512 27.6576 11.5704 26.433C10.6287 25.2083 7.84907 24.9228 7.44229 23.3977C7.03551 21.8725 9.30293 20.167 9.50632 18.6869C9.70971 17.2068 8.00726 14.9454 8.78316 13.6231C9.55905 12.3007 12.3538 12.6539 13.5892 11.7072C14.8246 10.7605 15.1485 8.00322 16.6928 7.58999Z" stroke="black" stroke-width="0.420321"/>
<path d="M9.12267 15.1851C9.72531 13.8478 12.3242 13.9304 13.3261 12.9763C14.3279 12.0221 14.4409 9.40752 15.7517 8.89663C17.0624 8.38573 18.8477 10.264 20.279 10.2941C21.7102 10.3241 23.5332 8.52097 24.8741 9.11451C26.215 9.70805 26.117 12.3076 27.0662 13.2993C28.0153 14.2911 30.6368 14.3963 31.1415 15.7035C31.6462 17.0108 29.7554 18.799 29.7178 20.2265C29.6801 21.654 31.4805 23.4721 30.8779 24.8095C30.2752 26.1468 27.6764 26.0642 26.6745 27.0183C25.6726 27.9725 25.5596 30.5871 24.2489 31.098C22.9381 31.6089 21.1528 29.7306 19.7215 29.7005C18.343 29.6705 16.4673 31.4736 15.1264 30.8801C13.7856 30.2866 13.8835 27.687 12.9344 26.6953C11.9852 25.7035 9.36373 25.5984 8.85902 24.2911C8.35431 22.9838 10.2451 21.1957 10.2828 19.7682C10.3204 18.3407 8.52004 16.5225 9.12267 15.1851Z" stroke="black" stroke-width="0.420321"/>
<path d="M10.1843 24.9594C9.56663 23.7572 11.141 21.9541 11.0431 20.6919C10.9452 19.4297 9.11465 17.8369 9.5139 16.6122C9.91314 15.3876 12.3011 15.1998 13.1598 14.2005C13.9885 13.2388 13.7775 10.8572 14.9828 10.2486C16.1881 9.64004 18.0111 11.2028 19.2841 11.1051C20.5572 11.0074 22.1542 9.19677 23.3971 9.59496C24.6401 9.99316 24.8209 12.3673 25.8303 13.2163C26.8397 14.0653 29.1975 13.8399 29.8152 15.0345C30.4329 16.2291 28.8585 18.0397 28.9565 19.302C29.0544 20.5642 30.8849 22.1569 30.4857 23.3816C30.0864 24.6062 27.6985 24.7941 26.8397 25.7933C25.9809 26.7926 26.222 29.1367 25.0167 29.7452C23.8114 30.3538 21.9885 28.7911 20.7154 28.8887C19.4423 28.9864 17.8453 30.7971 16.6024 30.3989C15.3595 30.0007 15.1787 27.6265 14.1693 26.7775C13.1975 25.9511 10.802 26.1539 10.1843 24.9594Z" stroke="black" stroke-width="0.420321"/>
<path d="M17.8533 29.8449C16.6254 29.5894 16.2488 27.4332 15.277 26.772C14.3053 26.1108 12.0981 26.494 11.4428 25.5023C10.7874 24.5105 12.0529 22.7074 11.8269 21.5203C11.6009 20.3332 9.77797 19.1537 10.0416 17.944C10.3053 16.7344 12.4974 16.3437 13.1678 15.3821C13.8608 14.3828 13.4616 12.2416 14.4785 11.5879C15.4955 10.9343 17.3109 12.174 18.5087 11.9486C19.7064 11.7232 20.9192 9.91249 22.1471 10.1679C23.375 10.4234 23.7516 12.5797 24.7234 13.2408C25.7328 13.9245 27.9023 13.5188 28.5576 14.5105C29.213 15.5023 27.9475 17.3054 28.1735 18.4925C28.3994 19.6796 30.2224 20.8592 29.9588 22.0688C29.6951 23.2784 27.503 23.6691 26.8326 24.6307C26.1622 25.5924 26.5388 27.7712 25.5219 28.4249C24.5049 29.0785 22.6895 27.8389 21.4917 28.0643C20.294 28.2897 19.0812 30.1003 17.8533 29.8449Z" stroke="black" stroke-width="0.420321"/>
<path d="M25.8528 27.2031C24.9564 27.9244 23.1711 26.9552 22.1316 27.2633C21.092 27.5713 20.0751 29.3669 18.9828 29.2542C17.883 29.1415 17.318 27.2107 16.3312 26.6772C15.3444 26.1438 13.4235 26.7674 12.7078 25.8808C11.9922 24.9943 12.9866 23.2137 12.6777 22.1769C12.3689 21.14 10.5835 20.1558 10.7041 19.0589C10.8246 17.962 12.7756 17.3835 13.318 16.3992C13.8604 15.415 13.2502 13.5067 14.1466 12.7854C15.0431 12.0642 16.8284 13.0334 17.8679 12.7253C18.9075 12.4173 19.9244 10.6216 21.0167 10.7343C22.109 10.847 22.6815 12.7779 23.6683 13.3113C24.6551 13.8448 26.576 13.2212 27.2916 14.1077C28.0073 14.9943 27.0129 16.7749 27.3218 17.8117C27.6306 18.8485 29.4159 19.8328 29.2954 20.9297C29.1749 22.0266 27.2238 22.6051 26.6815 23.5893C26.1391 24.5735 26.7493 26.4819 25.8528 27.2031Z" stroke="black" stroke-width="0.420321"/>
<path d="M28.61 20.0004C28.61 21.0597 26.8699 21.7584 26.4857 22.6826C26.1015 23.6067 26.8096 25.3572 26.0864 26.071C25.3633 26.7847 23.6382 26.071 22.6891 26.4692C21.7399 26.8674 21.062 28.5879 19.9998 28.5879C18.9377 28.5879 18.2371 26.8524 17.3106 26.4692C16.384 26.086 14.6288 26.7923 13.9132 26.071C13.1976 25.3497 13.9132 23.6292 13.5139 22.6826C13.1147 21.7359 11.3896 21.0597 11.3896 20.0004C11.3896 18.941 13.1298 18.2423 13.5139 17.3182C13.8981 16.3941 13.19 14.6435 13.9132 13.9297C14.6364 13.216 16.3614 13.9297 17.3106 13.5315C18.2597 13.1334 18.9377 11.4128 19.9998 11.4128C21.062 11.4128 21.7625 13.1484 22.6891 13.5315C23.6156 13.9147 25.3708 13.2085 26.0864 13.9297C26.8021 14.651 26.0864 16.3715 26.4857 17.3182C26.8849 18.2648 28.61 18.941 28.61 20.0004Z" stroke="black" stroke-width="0.420321"/>
</g>
<path fill-rule="evenodd" clip-rule="evenodd" d="M110.272 13.7868C110.272 13.417 110.147 13.1114 109.898 12.8668C109.646 12.6223 109.339 12.5 108.971 12.5C108.603 12.5 108.293 12.6223 108.043 12.8668C107.794 13.1114 107.67 13.417 107.67 13.7868C107.67 14.1565 107.794 14.4622 108.043 14.7067C108.293 14.9513 108.603 15.0735 108.971 15.0735C109.339 15.0735 109.649 14.9513 109.898 14.7067C110.147 14.4622 110.272 14.1565 110.272 13.7868ZM110.037 16.5583H107.91V26.6953H110.037V16.5583ZM54.1699 12.8344H63.1759V14.8548H56.4359V18.6947H61.9936V20.654H56.4359V24.6744H63.4106V26.6948H54.167V12.8373L54.1699 12.8344ZM63.5319 16.5532H65.8181L68.597 24.3932L71.3353 16.5532H73.581L69.8575 26.6902H67.2554L63.5319 16.5532ZM74.5373 24.3442C74.9661 25.1303 75.5689 25.7387 76.3512 26.1667C77.1307 26.5946 78.029 26.8101 79.0403 26.8101C80.0516 26.8101 80.947 26.5946 81.7293 26.1667C82.5117 25.7358 83.1173 25.1303 83.5433 24.3442C83.9693 23.5582 84.1837 22.6382 84.1837 21.6222C84.1837 20.6062 83.9693 19.7066 83.5433 18.9206C83.1144 18.1345 82.5117 17.5261 81.7293 17.0894C80.9499 16.6556 80.0516 16.4373 79.0403 16.4373C78.029 16.4373 77.1336 16.6527 76.3512 17.0894C75.5689 17.5261 74.9632 18.1345 74.5373 18.9206C74.1113 19.7066 73.8969 20.5916 73.8969 21.6222C73.8969 22.6528 74.1113 23.5582 74.5373 24.3442ZM82.0162 21.6222C82.0162 22.612 81.7438 23.4214 81.1991 24.0473C80.6543 24.6732 79.9328 24.9876 79.0403 24.9876C78.1478 24.9876 77.4321 24.6732 76.8931 24.0473C76.3541 23.4214 76.0847 22.612 76.0847 21.6222C76.0847 20.6324 76.3541 19.823 76.8931 19.1971C77.4321 18.5712 78.1449 18.2568 79.0403 18.2568C79.9357 18.2568 80.6543 18.5712 81.1991 19.1971C81.7438 19.823 82.0162 20.6324 82.0162 21.6222ZM85.899 12.8344H88.0259V26.6919H85.899V12.8344ZM99.1589 26.6902V16.5532H97.032V21.581C97.032 22.6261 96.8031 23.4471 96.3424 24.0468C95.8816 24.6465 95.2441 24.9464 94.4299 24.9464C93.6562 24.9464 93.0709 24.6902 92.6768 24.1749C92.2827 23.6596 92.0856 22.9085 92.0856 21.9187V16.5532H89.9558V22.137C89.9558 23.7731 90.3238 24.9609 91.0599 25.7004C91.7959 26.4398 92.755 26.8096 93.9373 26.8096C95.2499 26.8096 96.2873 26.3409 97.0494 25.4034L97.287 26.6902H99.1589ZM101.958 18.4348H100.205V16.5541H101.958V13.7215H104.106V16.5541H106.531V18.4348H104.106V23.7216C104.106 24.1176 104.184 24.3971 104.343 24.563C104.5 24.7289 104.769 24.8105 105.152 24.8105H106.769V26.6911H104.72C103.761 26.6911 103.062 26.467 102.622 26.0186C102.181 25.5703 101.961 24.8774 101.961 23.94V18.4348H101.958ZM114.204 26.1667C113.422 25.7387 112.819 25.1303 112.39 24.3442C111.964 23.5582 111.75 22.6528 111.75 21.6222C111.75 20.5916 111.964 19.7066 112.39 18.9206C112.816 18.1345 113.422 17.5261 114.204 17.0894C114.986 16.6527 115.882 16.4373 116.893 16.4373C117.904 16.4373 118.803 16.6556 119.582 17.0894C120.365 17.5261 120.967 18.1345 121.396 18.9206C121.822 19.7066 122.037 20.6062 122.037 21.6222C122.037 22.6382 121.822 23.5582 121.396 24.3442C120.97 25.1303 120.365 25.7358 119.582 26.1667C118.8 26.5946 117.904 26.8101 116.893 26.8101C115.882 26.8101 114.984 26.5946 114.204 26.1667ZM119.052 24.0473C119.597 23.4214 119.869 22.612 119.869 21.6222C119.869 20.6324 119.597 19.823 119.052 19.1971C118.507 18.5712 117.789 18.2568 116.893 18.2568C115.998 18.2568 115.285 18.5712 114.746 19.1971C114.207 19.823 113.937 20.6324 113.937 21.6222C113.937 22.612 114.207 23.4214 114.746 24.0473C115.285 24.6732 116.001 24.9876 116.893 24.9876C117.786 24.9876 118.507 24.6732 119.052 24.0473ZM133.132 21.1108C133.132 19.4747 132.755 18.2869 131.999 17.5475L132.001 17.5533C131.245 16.8138 130.269 16.4441 129.075 16.4441C127.684 16.4441 126.606 16.9245 125.844 17.8881L125.606 16.5605H123.755V26.6975H125.881V21.5883C125.881 20.5577 126.119 19.7513 126.6 19.1632C127.078 18.5751 127.739 18.2811 128.579 18.2811C129.367 18.2811 129.964 18.5315 130.373 19.0322C130.781 19.5329 130.984 20.2666 130.984 21.2302V26.6946H133.132V21.1108ZM142.532 17.3863C143.268 18.021 143.636 18.9235 143.636 20.0996V26.6936H141.784L141.607 25.2496C141.228 25.7504 140.776 26.1376 140.257 26.4083C139.738 26.679 139.104 26.813 138.356 26.813C137.241 26.813 136.345 26.548 135.676 26.0211C135.006 25.4942 134.67 24.7664 134.67 23.8435C134.67 22.8013 135.041 21.9978 135.783 21.4388C136.525 20.8769 137.6 20.5974 139.005 20.5974H141.529V19.9832C141.529 19.4155 141.332 18.97 140.938 18.6469C140.544 18.3238 139.999 18.1607 139.304 18.1607C138.687 18.1607 138.177 18.2917 137.777 18.5566C137.377 18.8216 137.136 19.1826 137.058 19.6455H134.969C135.073 18.6294 135.519 17.8405 136.308 17.2786C137.096 16.7167 138.127 16.4373 139.402 16.4373C140.756 16.4373 141.799 16.7546 142.535 17.3863H142.532ZM140.767 24.4345C141.26 23.9599 141.512 23.3253 141.526 22.5334V22.1783H138.886C138.229 22.1783 137.725 22.3063 137.368 22.5654C137.015 22.8216 136.835 23.203 136.835 23.7037C136.835 24.1404 137.003 24.4898 137.336 24.7518C137.672 25.0167 138.127 25.1477 138.707 25.1477C139.588 25.1477 140.274 24.909 140.767 24.4345ZM151.143 16.5561V16.5532L151.146 16.5561H151.143ZM150.674 16.5561H151.143V18.5532H150.199C149.318 18.5532 148.68 18.8415 148.286 19.415C147.892 19.9885 147.695 20.7192 147.695 21.6013V26.6902H145.568V16.5532H147.461L147.698 18.0787C147.988 17.6042 148.362 17.2315 148.822 16.9608C149.283 16.69 149.9 16.5561 150.674 16.5561ZM153.882 16.5532L156.699 24.3728L159.437 16.5532H161.703L157.13 28.2739C156.893 28.8795 156.678 29.3453 156.481 29.6684C156.284 29.9916 156.041 30.2361 155.751 30.4021C155.461 30.568 155.073 30.6495 154.589 30.6495H152.303V28.7688H153.801C154.207 28.7688 154.491 28.7048 154.647 28.5796C154.804 28.4544 154.969 28.1749 155.14 27.7383L155.554 26.7688L151.613 16.5532H153.879H153.882ZM164.72 22.1826L164.719 22.1769L164.725 22.1827L164.72 22.1826ZM162.497 22.142L164.72 22.1826C164.787 22.9981 165.118 23.6541 165.713 24.1478C166.31 24.6428 167.09 24.8902 168.049 24.8902C168.889 24.8902 169.57 24.7097 170.089 24.3458C170.607 23.9819 170.868 23.4783 170.868 22.832C170.868 22.3691 170.726 22.0052 170.445 21.7344C170.161 21.4637 169.779 21.257 169.292 21.1114C168.805 20.9658 168.121 20.8145 167.243 20.6572C166.351 20.5 165.586 20.2904 164.948 20.0342C164.311 19.778 163.792 19.385 163.392 18.8552C162.992 18.3282 162.792 17.6354 162.792 16.7765C162.792 15.9847 162.998 15.2773 163.412 14.6572C163.827 14.0371 164.403 13.5567 165.145 13.2132C165.887 12.8696 166.739 12.6979 167.698 12.6979C168.657 12.6979 169.564 12.8842 170.338 13.251C171.112 13.6207 171.723 14.1302 172.169 14.7765C172.616 15.4228 172.859 16.1623 172.899 16.9949H170.674C170.596 16.2816 170.286 15.7081 169.747 15.2714C169.208 14.8347 168.524 14.6193 167.698 14.6193C166.872 14.6193 166.255 14.794 165.777 15.1433C165.296 15.4927 165.058 15.9847 165.058 16.6193C165.058 17.0677 165.2 17.4258 165.481 17.6878C165.762 17.9527 166.142 18.1507 166.614 18.2817C167.087 18.4127 167.765 18.5582 168.643 18.7184C169.535 18.8756 170.306 19.0881 170.949 19.353C171.593 19.6179 172.12 20.0051 172.526 20.5204C172.931 21.0357 173.137 21.714 173.137 22.5583C173.137 23.4026 172.92 24.11 172.488 24.7563C172.053 25.4026 171.451 25.9092 170.674 26.2701C169.9 26.6341 169.019 26.8146 168.034 26.8146C166.945 26.8146 165.986 26.6166 165.157 26.2207C164.328 25.8247 163.682 25.2745 163.215 24.5671C162.749 23.8625 162.508 23.0532 162.497 22.142ZM182.691 25.8144C181.877 26.4811 180.83 26.813 179.558 26.813C178.559 26.813 177.681 26.5975 176.919 26.1696C176.157 25.7416 175.568 25.1303 175.154 24.3384C174.74 23.5465 174.534 22.6353 174.534 21.6047C174.534 20.5741 174.742 19.6717 175.165 18.8914C175.586 18.1141 176.18 17.5086 176.948 17.0806C177.715 16.6527 178.605 16.4373 179.616 16.4373C180.877 16.4373 181.908 16.7721 182.711 17.4358C183.514 18.1025 184.012 19.0108 184.209 20.1578H182.021C181.877 19.5785 181.587 19.1156 181.155 18.7721C180.72 18.4286 180.19 18.2568 179.558 18.2568C178.704 18.2568 178.017 18.5683 177.498 19.1884C176.979 19.8085 176.719 20.6149 176.719 21.6047C176.719 22.5946 176.977 23.4243 177.498 24.0502C178.017 24.6761 178.704 24.9905 179.558 24.9905C180.216 24.9905 180.761 24.8158 181.193 24.4665C181.627 24.1171 181.908 23.6455 182.039 23.0516H184.206C184.009 24.2278 183.502 25.1477 182.688 25.8144H182.691ZM194.496 20.0996C194.496 18.9235 194.128 18.021 193.392 17.3863H193.395C192.659 16.7546 191.615 16.4373 190.262 16.4373C188.987 16.4373 187.956 16.7167 187.167 17.2786C186.379 17.8405 185.933 18.6294 185.829 19.6455H187.918C187.996 19.1826 188.237 18.8216 188.637 18.5566C189.036 18.2917 189.546 18.1607 190.164 18.1607C190.859 18.1607 191.404 18.3238 191.798 18.6469C192.192 18.97 192.389 19.4155 192.389 19.9832V20.5974H189.865C188.46 20.5974 187.385 20.8769 186.643 21.4388C185.901 21.9978 185.53 22.8013 185.53 23.8435C185.53 24.7664 185.866 25.4942 186.536 26.0211C187.205 26.548 188.101 26.813 189.216 26.813C189.964 26.813 190.598 26.679 191.117 26.4083C191.636 26.1376 192.088 25.7504 192.467 25.2496L192.644 26.6936H194.496V20.0996ZM192.386 22.5334C192.372 23.3253 192.12 23.9599 191.627 24.4345C191.134 24.909 190.448 25.1477 189.567 25.1477C188.987 25.1477 188.532 25.0167 188.196 24.7518C187.863 24.4898 187.695 24.1404 187.695 23.7037C187.695 23.203 187.874 22.8216 188.228 22.5654C188.584 22.3063 189.089 22.1783 189.746 22.1783H192.386V22.5334ZM196.426 12.8344H198.552V26.6919H196.426V12.8344ZM202.624 17.0806C201.882 17.5115 201.305 18.1171 200.891 18.9031V18.9002C200.477 19.6862 200.271 20.612 200.271 21.6426C200.271 22.6732 200.485 23.5786 200.911 24.3559C201.34 25.1332 201.943 25.7387 202.725 26.1667C203.508 26.5946 204.423 26.8101 205.475 26.8101C206.684 26.8101 207.692 26.4811 208.5 25.8202C209.306 25.1623 209.801 24.318 209.987 23.2874H207.857C207.712 23.8551 207.417 24.2947 206.97 24.6033C206.524 24.9148 205.974 25.0691 205.316 25.0691C204.487 25.0691 203.824 24.8129 203.325 24.2976C202.824 23.7824 202.549 23.0836 202.496 22.1986V22.0793H210.103C210.14 21.8027 210.161 21.532 210.161 21.267C210.146 20.2918 209.926 19.4388 209.5 18.7139C209.074 17.989 208.489 17.4271 207.747 17.0312C207.005 16.6352 206.136 16.4373 205.177 16.4373C204.218 16.4373 203.366 16.6527 202.624 17.0806ZM207.115 18.7837C207.608 19.2 207.901 19.7765 207.993 20.5159H207.99H202.572C202.653 19.8027 202.943 19.2321 203.45 18.8041C203.954 18.3762 204.557 18.1607 205.252 18.1607C206.003 18.1607 206.623 18.3674 207.115 18.7837Z" fill="black"/>
<defs>
<clipPath id="clip0_368_11667">
<rect width="40" height="40" fill="white"/>
</clipPath>
</defs>
</svg>
